<?xml version="1.0" encoding="utf-8"?>
<!-- Generator: Adobe Illustrator 22.0.1, SVG Export Plug-In . SVG Version: 6.00 Build 0)  -->
<svg version="1.1" id="Layer_1" xmlns="http://www.w3.org/2000/svg" xmlns:xlink="http://www.w3.org/1999/xlink" x="0px" y="0px"
	 viewBox="0 0 1888 248" style="enable-background:new 0 0 1888 248;" xml:space="preserve">
<style type="text/css">
	.st0{fill:#FFFFF8;}
</style>
<g>
	<g>
		<g>
			<g>
				<g>
					<path class="st0" d="M1848.4,117.4h39.6v130.6h-39.6V117.4z M1887,118.3h-37.6V247h37.6V118.3z"/>
				</g>
				<g>
					<g>
						<rect x="1856.1" y="130.4" class="st0" width="24.2" height="1"/>
					</g>
					<g>
						<rect x="1856.1" y="145.2" class="st0" width="24.2" height="1"/>
					</g>
					<g>
						<rect x="1856.1" y="160" class="st0" width="24.2" height="1"/>
					</g>
					<g>
						<rect x="1856.1" y="174.8" class="st0" width="24.2" height="1"/>
					</g>
					<g>
						<rect x="1856.1" y="189.6" class="st0" width="24.2" height="1"/>
					</g>
					<g>
						<rect x="1856.1" y="204.4" class="st0" width="24.2" height="1"/>
					</g>
					<g>
						<rect x="1856.1" y="219.2" class="st0" width="24.2" height="1"/>
					</g>
					<g>
						<rect x="1856.1" y="234" class="st0" width="24.2" height="1"/>
					</g>
				</g>
			</g>
			<g>
				<g>
					<path class="st0" d="M1852.9,74.5h30.6v43.4h-30.6V74.5z M1882.5,75.5h-28.6V117h28.6V75.5z"/>
				</g>
				<g>
					<g>
						<rect x="1859.4" y="83.7" class="st0" width="17.5" height="1"/>
					</g>
					<g>
						<rect x="1859.4" y="95.8" class="st0" width="17.5" height="1"/>
					</g>
					<g>
						<rect x="1859.4" y="107.8" class="st0" width="17.5" height="1"/>
					</g>
				</g>
			</g>
			<g>
				<path class="st0" d="M1856,51.2h24.3v24.3H1856V51.2z M1879.4,52.2H1857v22.3h22.4V52.2z"/>
			</g>
			<g>
				<path class="st0" d="M1859.5,26.6h17.3v25.6h-17.3V26.6z M1875.8,27.5h-15.3v23.7h15.3V27.5z"/>
			</g>
			<g>
				<rect x="1867.7" y="2.8" class="st0" width="1" height="24.2"/>
			</g>
		</g>
		<g>
			<g>
				<g>
					<path class="st0" d="M1776.7,117.4h39.6v130.6h-39.6V117.4z M1815.3,118.3h-37.6V247h37.6V118.3z"/>
				</g>
				<g>
					<g>
						<rect x="1784.4" y="130.4" class="st0" width="24.2" height="1"/>
					</g>
					<g>
						<rect x="1784.4" y="145.2" class="st0" width="24.2" height="1"/>
					</g>
					<g>
						<rect x="1784.4" y="160" class="st0" width="24.2" height="1"/>
					</g>
					<g>
						<rect x="1784.4" y="174.8" class="st0" width="24.2" height="1"/>
					</g>
					<g>
						<rect x="1784.4" y="189.6" class="st0" width="24.2" height="1"/>
					</g>
					<g>
						<rect x="1784.4" y="204.4" class="st0" width="24.2" height="1"/>
					</g>
					<g>
						<rect x="1784.4" y="219.2" class="st0" width="24.2" height="1"/>
					</g>
					<g>
						<rect x="1784.4" y="234" class="st0" width="24.2" height="1"/>
					</g>
				</g>
			</g>
			<g>
				<g>
					<path class="st0" d="M1781.2,74.5h30.6v43.4h-30.6V74.5z M1810.8,75.5h-28.6V117h28.6V75.5z"/>
				</g>
				<g>
					<g>
						<rect x="1787.8" y="83.7" class="st0" width="17.5" height="1"/>
					</g>
					<g>
						<rect x="1787.8" y="95.8" class="st0" width="17.5" height="1"/>
					</g>
					<g>
						<rect x="1787.8" y="107.8" class="st0" width="17.5" height="1"/>
					</g>
				</g>
			</g>
			<g>
				<path class="st0" d="M1784.4,51.2h24.3v24.3h-24.3V51.2z M1807.7,52.2h-22.4v22.3h22.4V52.2z"/>
			</g>
			<g>
				<path class="st0" d="M1787.9,26.6h17.3v25.6h-17.3V26.6z M1804.2,27.5h-15.3v23.7h15.3V27.5z"/>
			</g>
			<g>
				<rect x="1796" y="2.8" class="st0" width="1" height="24.2"/>
			</g>
		</g>
		<g>
			<path class="st0" d="M1815.3,134.6h34.1v14.4h-34.1V134.6z M1848.4,135.6h-32.1v12.5h32.1V135.6z"/>
		</g>
		<g>
			<path class="st0" d="M1815.3,168h34.1v14.4h-34.1V168z M1848.4,169h-32.1v12.5h32.1V169z"/>
		</g>
	</g>
	<g>
		<g>
			<path class="st0" d="M1692,160h65.1v88H1692V160z M1756.1,160.9H1693v86h63.2V160.9z"/>
		</g>
		<g>
			<g>
				<g>
					<path class="st0" d="M1728.7,172h17.3v17.3h-17.3V172z M1744.9,173h-15.3v15.3h15.3V173z"/>
				</g>
				<g>
					<path class="st0" d="M1703.2,172h17.3v17.3h-17.3V172z M1719.5,173h-15.3v15.3h15.3V173z"/>
				</g>
			</g>
			<g>
				<g>
					<path class="st0" d="M1728.7,195.3h17.3v17.3h-17.3V195.3z M1744.9,196.3h-15.3v15.3h15.3V196.3z"/>
				</g>
				<g>
					<path class="st0" d="M1703.2,195.3h17.3v17.3h-17.3V195.3z M1719.5,196.3h-15.3v15.3h15.3V196.3z"/>
				</g>
			</g>
			<g>
				<g>
					<path class="st0" d="M1728.7,218.6h17.3v17.3h-17.3V218.6z M1744.9,219.6h-15.3v15.3h15.3V219.6z"/>
				</g>
				<g>
					<path class="st0" d="M1703.2,218.6h17.3v17.3h-17.3V218.6z M1719.5,219.6h-15.3v15.3h15.3V219.6z"/>
				</g>
			</g>
		</g>
	</g>
	<g>
		<g>
			<path class="st0" d="M1000.3,160h65.1v88h-65.1V160z M1064.4,160.9h-63.2v86h63.2V160.9z"/>
		</g>
		<g>
			<g>
				<g>
					<path class="st0" d="M1036.9,172h17.3v17.3h-17.3V172z M1053.2,173h-15.3v15.3h15.3V173z"/>
				</g>
				<g>
					<path class="st0" d="M1011.4,172h17.3v17.3h-17.3V172z M1027.7,173h-15.3v15.3h15.3V173z"/>
				</g>
			</g>
			<g>
				<g>
					<path class="st0" d="M1036.9,195.3h17.3v17.3h-17.3V195.3z M1053.2,196.3h-15.3v15.3h15.3V196.3z"/>
				</g>
				<g>
					<path class="st0" d="M1011.4,195.3h17.3v17.3h-17.3V195.3z M1027.7,196.3h-15.3v15.3h15.3V196.3z"/>
				</g>
			</g>
			<g>
				<g>
					<path class="st0" d="M1036.9,218.6h17.3v17.3h-17.3V218.6z M1053.2,219.6h-15.3v15.3h15.3V219.6z"/>
				</g>
				<g>
					<path class="st0" d="M1011.4,218.6h17.3v17.3h-17.3V218.6z M1027.7,219.6h-15.3v15.3h15.3V219.6z"/>
				</g>
			</g>
		</g>
	</g>
	<g>
		<g>
			<path class="st0" d="M1611.2,130.4h64.7v117.6h-64.7V130.4z M1674.9,131.3h-62.7V247h62.7V131.3z"/>
		</g>
		<g>
			<g>
				<rect x="1623.2" y="146.9" class="st0" width="40.8" height="1"/>
			</g>
			<g>
				<rect x="1623.2" y="163.6" class="st0" width="40.8" height="1"/>
			</g>
			<g>
				<rect x="1623.2" y="180.3" class="st0" width="40.8" height="1"/>
			</g>
			<g>
				<rect x="1623.2" y="197" class="st0" width="40.8" height="1"/>
			</g>
			<g>
				<rect x="1623.2" y="213.7" class="st0" width="40.8" height="1"/>
			</g>
			<g>
				<rect x="1623.2" y="230.4" class="st0" width="40.8" height="1"/>
			</g>
		</g>
		<g>
			<path class="st0" d="M1622.7,114.1h41.8v17.2h-41.8V114.1z M1663.5,115.1h-39.8v15.3h39.8V115.1z"/>
		</g>
	</g>
	<g>
		<g>
			<path class="st0" d="M1085.3,130.4h64.7v117.6h-64.7V130.4z M1149,131.3h-62.7V247h62.7V131.3z"/>
		</g>
		<g>
			<g>
				<rect x="1097.3" y="146.9" class="st0" width="40.8" height="1"/>
			</g>
			<g>
				<rect x="1097.3" y="163.6" class="st0" width="40.8" height="1"/>
			</g>
			<g>
				<rect x="1097.3" y="180.3" class="st0" width="40.8" height="1"/>
			</g>
			<g>
				<rect x="1097.3" y="197" class="st0" width="40.8" height="1"/>
			</g>
			<g>
				<rect x="1097.3" y="213.7" class="st0" width="40.8" height="1"/>
			</g>
			<g>
				<rect x="1097.3" y="230.4" class="st0" width="40.8" height="1"/>
			</g>
		</g>
		<g>
			<path class="st0" d="M1096.8,114.1h41.8v17.2h-41.8V114.1z M1137.6,115.1h-39.8v15.3h39.8V115.1z"/>
		</g>
	</g>
	<g>
		<g>
			<path class="st0" d="M1414.4,130.4h64.7v117.6h-64.7V130.4z M1478.1,131.3h-62.7V247h62.7V131.3z"/>
		</g>
		<g>
			<g>
				<rect x="1426.3" y="146.9" class="st0" width="40.8" height="1"/>
			</g>
			<g>
				<rect x="1426.3" y="163.6" class="st0" width="40.8" height="1"/>
			</g>
			<g>
				<rect x="1426.3" y="180.3" class="st0" width="40.8" height="1"/>
			</g>
			<g>
				<rect x="1426.3" y="197" class="st0" width="40.8" height="1"/>
			</g>
			<g>
				<rect x="1426.3" y="213.7" class="st0" width="40.8" height="1"/>
			</g>
			<g>
				<rect x="1426.3" y="230.4" class="st0" width="40.8" height="1"/>
			</g>
		</g>
		<g>
			<path class="st0" d="M1425.8,114.1h41.8v17.2h-41.8V114.1z M1466.6,115.1h-39.8v15.3h39.8V115.1z"/>
		</g>
	</g>
	<g>
		<g>
			<g>
				<path class="st0" d="M1499.9,51.2h90.5v196.7h-90.5V51.2z M1589.4,52.2h-88.5V247h88.5V52.2z"/>
			</g>
			<g>
				<rect x="1544.7" y="51.7" class="st0" width="1" height="195.7"/>
			</g>
			<g>
				<g>
					<rect x="1554.7" y="71.9" class="st0" width="24.2" height="1"/>
				</g>
				<g>
					<rect x="1554.7" y="86.7" class="st0" width="24.2" height="1"/>
				</g>
				<g>
					<rect x="1554.7" y="101.4" class="st0" width="24.2" height="1"/>
				</g>
				<g>
					<rect x="1554.7" y="116.2" class="st0" width="24.2" height="1"/>
				</g>
				<g>
					<rect x="1554.7" y="131" class="st0" width="24.2" height="1"/>
				</g>
			</g>
			<g>
				<g>
					<rect x="1509.6" y="167" class="st0" width="24.2" height="1"/>
				</g>
				<g>
					<rect x="1509.6" y="181.8" class="st0" width="24.2" height="1"/>
				</g>
				<g>
					<rect x="1509.6" y="196.6" class="st0" width="24.2" height="1"/>
				</g>
				<g>
					<rect x="1509.6" y="211.4" class="st0" width="24.2" height="1"/>
				</g>
				<g>
					<rect x="1509.6" y="226.2" class="st0" width="24.2" height="1"/>
				</g>
			</g>
		</g>
		<g>
			<path class="st0" d="M1509.2,38.9h70.3v13.3h-70.3V38.9z M1578.5,39.9h-68.3v11.4h68.3V39.9z"/>
		</g>
	</g>
	<g>
		<g>
			<path class="st0" d="M1252.2,180.3h145v67.6h-145V180.3z M1396.2,181.3h-143V247h143V181.3z"/>
		</g>
		<g>
			<path class="st0" d="M1252.2,163.6h73v17.7h-73V163.6z M1324.2,164.6h-71v15.7h71V164.6z"/>
		</g>
		<g>
			<rect x="1324.2" y="180.8" class="st0" width="1" height="66.6"/>
		</g>
		<g>
			<g>
				<rect x="1337.9" y="235.3" class="st0" width="45.1" height="1"/>
			</g>
			<g>
				<rect x="1337.9" y="226.2" class="st0" width="45.1" height="1"/>
			</g>
		</g>
		<g>
			<g>
				<rect x="1266.1" y="199.9" class="st0" width="45.1" height="1"/>
			</g>
			<g>
				<rect x="1266.1" y="190.9" class="st0" width="45.1" height="1"/>
			</g>
		</g>
	</g>
	<g>
		<g>
			<path class="st0" d="M829.8,180.3h145v67.6h-145V180.3z M973.8,181.3h-143V247h143V181.3z"/>
		</g>
		<g>
			<path class="st0" d="M829.8,163.6h73v17.7h-73V163.6z M901.8,164.6h-71v15.7h71V164.6z"/>
		</g>
		<g>
			<rect x="901.8" y="180.8" class="st0" width="1" height="66.6"/>
		</g>
		<g>
			<g>
				<rect x="915.5" y="235.3" class="st0" width="45.1" height="1"/>
			</g>
			<g>
				<rect x="915.5" y="226.2" class="st0" width="45.1" height="1"/>
			</g>
		</g>
		<g>
			<g>
				<rect x="843.7" y="199.9" class="st0" width="45.1" height="1"/>
			</g>
			<g>
				<rect x="843.7" y="190.9" class="st0" width="45.1" height="1"/>
			</g>
		</g>
	</g>
	<g>
		<g>
			<g>
				<path class="st0" d="M1169.8,160h65.1v88h-65.1V160z M1234,160.9h-63.2v86h63.2V160.9z"/>
			</g>
			<g>
				<g>
					<g>
						<path class="st0" d="M1206.5,172h17.3v17.3h-17.3V172z M1222.8,173h-15.3v15.3h15.3V173z"/>
					</g>
					<g>
						<path class="st0" d="M1181,172h17.3v17.3H1181V172z M1197.3,173H1182v15.3h15.3V173z"/>
					</g>
				</g>
				<g>
					<g>
						<path class="st0" d="M1206.5,195.3h17.3v17.3h-17.3V195.3z M1222.8,196.3h-15.3v15.3h15.3V196.3z"/>
					</g>
					<g>
						<path class="st0" d="M1181,195.3h17.3v17.3H1181V195.3z M1197.3,196.3H1182v15.3h15.3V196.3z"/>
					</g>
				</g>
				<g>
					<g>
						<path class="st0" d="M1206.5,218.6h17.3v17.3h-17.3V218.6z M1222.8,219.6h-15.3v15.3h15.3V219.6z"/>
					</g>
					<g>
						<path class="st0" d="M1181,218.6h17.3v17.3H1181V218.6z M1197.3,219.6H1182v15.3h15.3V219.6z"/>
					</g>
				</g>
			</g>
		</g>
		<g>
			<path class="st0" d="M1181,107.9h42.7v53H1181V107.9z M1222.8,108.9H1182V160h40.8V108.9z"/>
		</g>
		<g>
			<path class="st0" d="M1189.1,71.9h26.5v37h-26.5V71.9z M1214.6,72.8h-24.5v35.1h24.5V72.8z"/>
		</g>
		<g>
			<rect x="1201.9" y="39.4" class="st0" width="1" height="33"/>
		</g>
	</g>
</g>
<g>
	<g>
		<g>
			<g>
				<g>
					<path class="st0" d="M764.1,116.4h39.6V247h-39.6V116.4z M802.6,117.4H765V246h37.6V117.4z"/>
				</g>
				<g>
					<g>
						<rect x="771.7" y="129.4" class="st0" width="24.2" height="1"/>
					</g>
					<g>
						<rect x="771.7" y="144.2" class="st0" width="24.2" height="1"/>
					</g>
					<g>
						<rect x="771.7" y="159" class="st0" width="24.2" height="1"/>
					</g>
					<g>
						<rect x="771.7" y="173.8" class="st0" width="24.2" height="1"/>
					</g>
					<g>
						<rect x="771.7" y="188.6" class="st0" width="24.2" height="1"/>
					</g>
					<g>
						<rect x="771.7" y="203.4" class="st0" width="24.2" height="1"/>
					</g>
					<g>
						<rect x="771.7" y="218.2" class="st0" width="24.2" height="1"/>
					</g>
					<g>
						<rect x="771.7" y="233" class="st0" width="24.2" height="1"/>
					</g>
				</g>
			</g>
			<g>
				<g>
					<path class="st0" d="M768.6,73.6h30.6V117h-30.6V73.6z M798.2,74.5h-28.6V116h28.6V74.5z"/>
				</g>
				<g>
					<g>
						<rect x="775.1" y="82.8" class="st0" width="17.5" height="1"/>
					</g>
					<g>
						<rect x="775.1" y="94.8" class="st0" width="17.5" height="1"/>
					</g>
					<g>
						<rect x="775.1" y="106.8" class="st0" width="17.5" height="1"/>
					</g>
				</g>
			</g>
			<g>
				<path class="st0" d="M771.7,50.2H796v24.3h-24.3V50.2z M795,51.2h-22.4v22.3H795V51.2z"/>
			</g>
			<g>
				<path class="st0" d="M775.2,25.6h17.3v25.6h-17.3V25.6z M791.5,26.6h-15.3v23.7h15.3V26.6z"/>
			</g>
			<g>
				<rect x="783.4" y="1.8" class="st0" width="1" height="24.2"/>
			</g>
		</g>
		<g>
			<g>
				<g>
					<path class="st0" d="M692.4,116.4H732V247h-39.6V116.4z M731,117.4h-37.6V246H731V117.4z"/>
				</g>
				<g>
					<g>
						<rect x="700.1" y="129.4" class="st0" width="24.2" height="1"/>
					</g>
					<g>
						<rect x="700.1" y="144.2" class="st0" width="24.2" height="1"/>
					</g>
					<g>
						<rect x="700.1" y="159" class="st0" width="24.2" height="1"/>
					</g>
					<g>
						<rect x="700.1" y="173.8" class="st0" width="24.2" height="1"/>
					</g>
					<g>
						<rect x="700.1" y="188.6" class="st0" width="24.2" height="1"/>
					</g>
					<g>
						<rect x="700.1" y="203.4" class="st0" width="24.2" height="1"/>
					</g>
					<g>
						<rect x="700.1" y="218.2" class="st0" width="24.2" height="1"/>
					</g>
					<g>
						<rect x="700.1" y="233" class="st0" width="24.2" height="1"/>
					</g>
				</g>
			</g>
			<g>
				<g>
					<path class="st0" d="M696.9,73.6h30.6V117h-30.6V73.6z M726.5,74.5h-28.6V116h28.6V74.5z"/>
				</g>
				<g>
					<g>
						<rect x="703.4" y="82.8" class="st0" width="17.5" height="1"/>
					</g>
					<g>
						<rect x="703.4" y="94.8" class="st0" width="17.5" height="1"/>
					</g>
					<g>
						<rect x="703.4" y="106.8" class="st0" width="17.5" height="1"/>
					</g>
				</g>
			</g>
			<g>
				<path class="st0" d="M700,50.2h24.3v24.3H700V50.2z M723.4,51.2H701v22.3h22.4V51.2z"/>
			</g>
			<g>
				<path class="st0" d="M703.5,25.6h17.3v25.6h-17.3V25.6z M719.8,26.6h-15.3v23.7h15.3V26.6z"/>
			</g>
			<g>
				<rect x="711.7" y="1.8" class="st0" width="1" height="24.2"/>
			</g>
		</g>
		<g>
			<path class="st0" d="M731,133.6H765v14.4H731V133.6z M764.1,134.6H732v12.5h32.1V134.6z"/>
		</g>
		<g>
			<path class="st0" d="M731,167.1H765v14.4H731V167.1z M764.1,168H732v12.5h32.1V168z"/>
		</g>
	</g>
	<g>
		<g>
			<path class="st0" d="M607.7,159h65.1v88h-65.1V159z M671.8,160h-63.2v86h63.2V160z"/>
		</g>
		<g>
			<g>
				<g>
					<path class="st0" d="M644.3,171h17.3v17.3h-17.3V171z M660.6,172h-15.3v15.3h15.3V172z"/>
				</g>
				<g>
					<path class="st0" d="M618.8,171h17.3v17.3h-17.3V171z M635.1,172h-15.3v15.3h15.3V172z"/>
				</g>
			</g>
			<g>
				<g>
					<path class="st0" d="M644.3,194.3h17.3v17.3h-17.3V194.3z M660.6,195.3h-15.3v15.3h15.3V195.3z"/>
				</g>
				<g>
					<path class="st0" d="M618.8,194.3h17.3v17.3h-17.3V194.3z M635.1,195.3h-15.3v15.3h15.3V195.3z"/>
				</g>
			</g>
			<g>
				<g>
					<path class="st0" d="M644.3,217.6h17.3v17.3h-17.3V217.6z M660.6,218.6h-15.3v15.3h15.3V218.6z"/>
				</g>
				<g>
					<path class="st0" d="M618.8,217.6h17.3v17.3h-17.3V217.6z M635.1,218.6h-15.3v15.3h15.3V218.6z"/>
				</g>
			</g>
		</g>
	</g>
	<g>
		<g>
			<path class="st0" d="M526.9,129.4h64.7V247h-64.7V129.4z M590.6,130.4h-62.7V246h62.7V130.4z"/>
		</g>
		<g>
			<g>
				<rect x="538.8" y="146" class="st0" width="40.8" height="1"/>
			</g>
			<g>
				<rect x="538.8" y="162.6" class="st0" width="40.8" height="1"/>
			</g>
			<g>
				<rect x="538.8" y="179.3" class="st0" width="40.8" height="1"/>
			</g>
			<g>
				<rect x="538.8" y="196" class="st0" width="40.8" height="1"/>
			</g>
			<g>
				<rect x="538.8" y="212.7" class="st0" width="40.8" height="1"/>
			</g>
			<g>
				<rect x="538.8" y="229.4" class="st0" width="40.8" height="1"/>
			</g>
		</g>
		<g>
			<path class="st0" d="M538.3,113.1h41.8v17.2h-41.8V113.1z M579.2,114.1h-39.8v15.3h39.8V114.1z"/>
		</g>
	</g>
	<g>
		<g>
			<path class="st0" d="M1,129.4h64.7V247H1V129.4z M64.7,130.4H2V246h62.7V130.4z"/>
		</g>
		<g>
			<g>
				<rect x="12.9" y="146" class="st0" width="40.8" height="1"/>
			</g>
			<g>
				<rect x="12.9" y="162.6" class="st0" width="40.8" height="1"/>
			</g>
			<g>
				<rect x="12.9" y="179.3" class="st0" width="40.8" height="1"/>
			</g>
			<g>
				<rect x="12.9" y="196" class="st0" width="40.8" height="1"/>
			</g>
			<g>
				<rect x="12.9" y="212.7" class="st0" width="40.8" height="1"/>
			</g>
			<g>
				<rect x="12.9" y="229.4" class="st0" width="40.8" height="1"/>
			</g>
		</g>
		<g>
			<path class="st0" d="M12.4,113.1h41.8v17.2H12.4V113.1z M53.3,114.1H13.4v15.3h39.8V114.1z"/>
		</g>
	</g>
	<g>
		<g>
			<path class="st0" d="M330,129.4h64.7V247H330V129.4z M393.7,130.4H331V246h62.7V130.4z"/>
		</g>
		<g>
			<g>
				<rect x="342" y="146" class="st0" width="40.8" height="1"/>
			</g>
			<g>
				<rect x="342" y="162.6" class="st0" width="40.8" height="1"/>
			</g>
			<g>
				<rect x="342" y="179.3" class="st0" width="40.8" height="1"/>
			</g>
			<g>
				<rect x="342" y="196" class="st0" width="40.8" height="1"/>
			</g>
			<g>
				<rect x="342" y="212.7" class="st0" width="40.8" height="1"/>
			</g>
			<g>
				<rect x="342" y="229.4" class="st0" width="40.8" height="1"/>
			</g>
		</g>
		<g>
			<path class="st0" d="M341.5,113.1h41.8v17.2h-41.8V113.1z M382.3,114.1h-39.8v15.3h39.8V114.1z"/>
		</g>
	</g>
	<g>
		<g>
			<g>
				<path class="st0" d="M415.6,50.2H506V247h-90.5V50.2z M505.1,51.2h-88.5V246h88.5V51.2z"/>
			</g>
			<g>
				<rect x="460.3" y="50.7" class="st0" width="1" height="195.7"/>
			</g>
			<g>
				<g>
					<rect x="470.4" y="70.9" class="st0" width="24.2" height="1"/>
				</g>
				<g>
					<rect x="470.4" y="85.7" class="st0" width="24.2" height="1"/>
				</g>
				<g>
					<rect x="470.4" y="100.5" class="st0" width="24.2" height="1"/>
				</g>
				<g>
					<rect x="470.4" y="115.3" class="st0" width="24.2" height="1"/>
				</g>
				<g>
					<rect x="470.4" y="130.1" class="st0" width="24.2" height="1"/>
				</g>
			</g>
			<g>
				<g>
					<rect x="425.3" y="166.1" class="st0" width="24.2" height="1"/>
				</g>
				<g>
					<rect x="425.3" y="180.9" class="st0" width="24.2" height="1"/>
				</g>
				<g>
					<rect x="425.3" y="195.7" class="st0" width="24.2" height="1"/>
				</g>
				<g>
					<rect x="425.3" y="210.5" class="st0" width="24.2" height="1"/>
				</g>
				<g>
					<rect x="425.3" y="225.2" class="st0" width="24.2" height="1"/>
				</g>
			</g>
		</g>
		<g>
			<path class="st0" d="M424.8,37.9h70.3v13.3h-70.3V37.9z M494.1,38.9h-68.3v11.4h68.3V38.9z"/>
		</g>
	</g>
	<g>
		<g>
			<path class="st0" d="M167.8,179.3h145V247h-145V179.3z M311.8,180.3h-143V246h143V180.3z"/>
		</g>
		<g>
			<path class="st0" d="M167.8,162.6h73v17.7h-73V162.6z M239.8,163.6h-71v15.7h71V163.6z"/>
		</g>
		<g>
			<rect x="239.8" y="179.8" class="st0" width="1" height="66.6"/>
		</g>
		<g>
			<g>
				<rect x="253.6" y="234.3" class="st0" width="45.1" height="1"/>
			</g>
			<g>
				<rect x="253.6" y="225.2" class="st0" width="45.1" height="1"/>
			</g>
		</g>
		<g>
			<g>
				<rect x="181.8" y="198.9" class="st0" width="45.1" height="1"/>
			</g>
			<g>
				<rect x="181.8" y="189.9" class="st0" width="45.1" height="1"/>
			</g>
		</g>
	</g>
	<g>
		<g>
			<g>
				<path class="st0" d="M85.5,159h65.1v88H85.5V159z M149.6,160H86.4v86h63.2V160z"/>
			</g>
			<g>
				<g>
					<g>
						<path class="st0" d="M122.1,171h17.3v17.3h-17.3V171z M138.4,172h-15.3v15.3h15.3V172z"/>
					</g>
					<g>
						<path class="st0" d="M96.7,171h17.3v17.3H96.7V171z M113,172H97.6v15.3H113V172z"/>
					</g>
				</g>
				<g>
					<g>
						<path class="st0" d="M122.1,194.3h17.3v17.3h-17.3V194.3z M138.4,195.3h-15.3v15.3h15.3V195.3z"/>
					</g>
					<g>
						<path class="st0" d="M96.7,194.3h17.3v17.3H96.7V194.3z M113,195.3H97.6v15.3H113V195.3z"/>
					</g>
				</g>
				<g>
					<g>
						<path class="st0" d="M122.1,217.6h17.3v17.3h-17.3V217.6z M138.4,218.6h-15.3v15.3h15.3V218.6z"/>
					</g>
					<g>
						<path class="st0" d="M96.7,217.6h17.3v17.3H96.7V217.6z M113,218.6H97.6v15.3H113V218.6z"/>
					</g>
				</g>
			</g>
		</g>
		<g>
			<path class="st0" d="M96.7,106.9h42.7v53H96.7V106.9z M138.4,107.9H97.6V159h40.8V107.9z"/>
		</g>
		<g>
			<path class="st0" d="M104.8,70.9h26.5v37h-26.5V70.9z M130.3,71.8h-24.5v35.1h24.5V71.8z"/>
		</g>
		<g>
			<rect x="117.5" y="38.4" class="st0" width="1" height="33"/>
		</g>
	</g>
</g>
</svg>
