<?xml version="1.0" encoding="utf-8"?>
<!-- Generator: Adobe Illustrator 22.0.1, SVG Export Plug-In . SVG Version: 6.00 Build 0)  -->
<svg version="1.1" id="Layer_1" xmlns="http://www.w3.org/2000/svg" xmlns:xlink="http://www.w3.org/1999/xlink" x="0px" y="0px"
	 viewBox="0 0 214.3 50" style="enable-background:new 0 0 214.3 50;" xml:space="preserve">
<g>
	<path d="M4.1,27.3v-4.1h35.8v4.1H24.3V31c4.6,0.1,8.2,0.8,10.6,2.2c2.1,1.2,3.2,2.9,3.2,5.3s-1.1,4.1-3.2,5.4
		c-2.8,1.6-7.1,2.2-12.8,2.2c-5.7,0-10.1-0.6-12.9-2.2c-2.1-1.2-3.2-2.9-3.2-5.4s1.1-4.1,3.2-5.3c2.4-1.4,5.9-2,10.4-2.2v-3.7H4.1z
		 M21.9,13.5c-3,3.5-9.3,6.2-16.7,7v-4.1c7.5-1.1,14.3-4.2,14.3-9.8V5.4h4.7v1.1c0,5.7,6.8,8.8,14.4,9.8v4.1
		C31.2,19.7,24.9,16.9,21.9,13.5z M10.7,38.5c0,0.9,0.5,1.6,1.4,2.1c1.8,1,5.1,1.4,10,1.4c4.8,0,8.2-0.4,9.9-1.4
		c0.9-0.5,1.4-1.3,1.4-2.1s-0.5-1.6-1.4-2.1c-1.8-1-5.1-1.4-9.9-1.4c-4.8,0-8.2,0.4-10,1.4C11.2,36.9,10.7,37.6,10.7,38.5z"/>
	<path d="M54.5,31.5V26h-8.4v-4.2H82V26h-8.4v5.5c1.1,0.4,2.1,0.7,3,1.2c2.2,1.2,3.6,3,3.6,5.7c0,2.6-1.3,4.4-3.6,5.6
		c-2.9,1.6-7.4,2.1-12.5,2.1c-5.1,0-9.6-0.6-12.5-2.1c-2.2-1.2-3.6-3-3.6-5.6c0-2.6,1.4-4.4,3.6-5.7C52.5,32.2,53.4,31.8,54.5,31.5z
		 M53.5,5.4v8.5h26.1v4.2H48.8V5.4H53.5z M52.8,38.3c0,1,0.5,1.7,1.5,2.3c1.8,1.1,5.2,1.5,9.8,1.5c4.6,0,7.9-0.4,9.8-1.5
		c1-0.6,1.5-1.3,1.5-2.3c0-1-0.6-1.8-1.5-2.3c-1.8-1.1-5.2-1.5-9.8-1.5c-4.6,0-8,0.4-9.8,1.5C53.3,36.5,52.8,37.3,52.8,38.3z
		 M68.9,30.7V26h-9.7v4.7c1.5-0.1,3.2-0.2,4.9-0.2C65.8,30.4,67.4,30.5,68.9,30.7z"/>
	<path d="M96.9,19.9c-1.5,3.1-5.2,6.1-9.1,7.6v-4.4c3.7-1.9,6.7-5.4,6.7-12V5.4h4.7V11c0,6.6,3,9.4,6.6,11.2v4.4
		C102.1,25.4,98.6,22.9,96.9,19.9z M92.2,45.3V29.9h30.1v15.4H92.2z M117.5,34H97v7.2h20.6V34z M108.3,27.3V5.4h4.5v8.4h4.9V5.1h4.6
		v22.4h-4.6V18h-4.9v9.3H108.3z"/>
	<path d="M132,45.4V5.1h15.2c8.4,0,12.7,3.7,12.7,10.9c0,4.3-2.2,7.2-5.9,8.4c4.4,1.1,7,4.7,7,9.4c0,7.5-4.2,11.6-12.8,11.6H132z
		 M145.9,11.5h-6.4v10.1h6.4c4.3,0,6.6-1.2,6.6-5C152.5,12.7,150.1,11.5,145.9,11.5z M146.8,27.9h-7.3v11.2h7.3
		c4.6,0,6.8-1.5,6.8-5.6S151.4,27.9,146.8,27.9z"/>
	<path d="M173.6,45.4h-7.5V5.1h7.5V45.4z"/>
	<path d="M194.9,45.4h-14.8V5.1h14.8c13.4,0,15.6,10,15.6,20.1C210.5,35.6,208.2,45.4,194.9,45.4z M194.3,11.5h-6.7v27.5h6.7
		c6.2,0,8.8-3.1,8.8-13.8C203.1,14.6,200.5,11.5,194.3,11.5z"/>
</g>
</svg>
