<?xml version="1.0" encoding="utf-8"?>
<!-- Generator: Adobe Illustrator 22.0.1, SVG Export Plug-In . SVG Version: 6.00 Build 0)  -->
<svg version="1.1" id="Capa_1" xmlns="http://www.w3.org/2000/svg" xmlns:xlink="http://www.w3.org/1999/xlink" x="0px" y="0px"
	 viewBox="0 0 30 30" style="enable-background:new 0 0 30 30;" xml:space="preserve">
<style type="text/css">
	.st0{fill:#FFFFFF;}
</style>
<g>
	<path class="st0" d="M24.4,11.3c0,0-1.4-0.6-2.8-0.6s-13.3,0-13.3,0V9.4c0-3.7,3-6.7,6.7-6.7c3.6,0,6.6,2.9,6.7,6.5h2.7
		C24.3,4.1,20.1,0,15,0C9.8,0,5.6,4.2,5.6,9.4v1.9c-2.4,1.1-4,3.5-4,6.1v5.9c0,3.7,3,6.7,6.7,6.7h13.4c3.7,0,6.7-3,6.7-6.7v-5.9
		C28.4,14.8,26.8,12.4,24.4,11.3z M16.3,21.7c0,0.7-0.6,1.3-1.3,1.3s-1.3-0.6-1.3-1.3V19c0-0.7,0.6-1.3,1.3-1.3s1.3,0.6,1.3,1.3
		V21.7z"/>
</g>
</svg>
